<svg xmlns="http://www.w3.org/2000/svg" viewBox="0 0 24 24" fill="currentColor" aria-hidden="true"><path d="M12 2C6.48 2 2 6.48 2 12c0 1.85.5 3.58 1.37 5.07L2 22l4.93-1.29A9.96 9.96 0 0012 22c5.52 0 10-4.48 10-10S17.52 2 12 2zm5.2 14.2c-.16.45-.94.83-1.3.88-.33.05-.76.11-2.2-.47-1.82-.7-3-2.38-3.1-2.49-.1-.11-.74-.97-.74-1.85 0-.88.46-1.31.62-1.49.16-.18.35-.23.47-.23.12 0 .24 0 .35.01.11.01.26-.04.4.31.15.35.5 1.22.55 1.31.05.09.08.2.02.32-.07.12-.1.2-.2.31-.1.1-.21.23-.3.31-.1.08-.2.17-.09.33.12.16.52.86 1.12 1.39.77.68 1.42.89 1.62.99.2.1.32.08.44-.05.12-.13.5-.58.64-.78.13-.2.27-.17.46-.1.19.07 1.2.57 1.41.67.21.1.35.15.4.23.05.08.05.47-.11.92z"/></svg>
